<svg version="1.0" xmlns="http://www.w3.org/2000/svg" width="400" height="400" viewBox="0 0 300 300"><path d="M209.5 14c-.5 1.6-1.5 2-5.3 2-8.1 0-16.3 6.4-15.7 12.2.1 1.3.3 3.1.4 4 0 .9 1.7 3.2 3.6 5.1l3.5 3.4-4.2 8.4-4.3 8.4-63.8-.3c-50.2-.2-64.2 0-65.4 1-2.4 2-3.4 5.5-2.2 8.5 1 2.8 32.1 34 63.9 64.3 10.1 9.6 19.7 18.8 21.4 20.5l3.1 2.9v73.4h-17.1c-18.9 0-21.4.6-21.4 5.4 0 5.4.3 5.4 45.3 5.4 44.3-.1 44.7-.1 44.7-5.1 0-1.2-.8-2.9-1.9-3.9-1.6-1.4-4.3-1.7-19-1.7-12.4 0-17.1-.4-17.2-1.2-.1-.7-.2-17-.3-36.2l-.1-35 2.5-2.5c1.4-1.4 13.1-12.6 26-25 37.8-36.2 59.8-58.5 60.9-61.3 1.1-2.9.1-6.9-2.1-8.3-.7-.5-13-.9-27.3-.9s-25.9-.4-25.8-.8c.1-.4 1.8-4.1 3.9-8.1l3.8-7.3 4.1.2c11.9.6 19.7-10.7 13.5-19.5-1.1-1.6-2.9-3.2-4-3.5-1.6-.5-1.8-1-1-2.5 1.4-2.6 1.2-4-.4-4-.8 0-1.8.9-2.1 2zm-29.4 57.4c.1.4-1.3 3.4-3.1 6.7l-3.1 5.9H90.4l-6.8-6.9-6.9-6.9 51.7.2c28.4.1 51.7.5 51.7 1zm44.6-.5c.6.1-2 3.1-5.7 6.7l-6.8 6.5h-16.7c-9.2 0-17-.2-17.2-.4-.7-.8 5.7-12.2 7.2-12.7 1.1-.4 34.2-.5 39.2-.1z"/></svg>