<svg aria-hidden="true" style="width:0;height:0;position:absolute;overflow:hidden" xmlns="http://www.w3.org/2000/svg"><defs><symbol id="icon-dark-heart" viewBox="0 0 35 32"><path fill="#fd5103" style="fill:var(--color1,#fd5103)" d="m17.684 32-2.564-2.302C6.013 21.554 0 16.183 0 9.591 0 4.22 4.28 0 9.726 0c3.077 0 6.03 1.413 7.958 3.645C19.612 1.413 22.565 0 25.642 0c5.447 0 9.726 4.22 9.726 9.591 0 6.592-6.013 11.963-15.12 20.124l-2.564 2.284z"/><path fill="#202025" style="fill:var(--color2,#202025)" d="m17.684 28.632-2.076-1.817c-7.373-6.429-12.24-10.67-12.24-15.874 0-4.24 3.464-7.572 7.874-7.572 2.491 0 4.882 1.115 6.442 2.877 1.56-1.762 3.951-2.877 6.442-2.877 4.409 0 7.874 3.332 7.874 7.572 0 5.204-4.867 9.444-12.24 15.888l-2.076 1.803z"/></symbol><symbol id="icon-arrow-mob" viewBox="0 0 32 32"><path d="m16.724 21.24 10.62-11.146a1.001 1.001 0 0 0 0-1.38l-.012-.012a.921.921 0 0 0-1.334 0l-10 10.496L6.002 8.702a.921.921 0 0 0-1.334 0l-.012.012a1.001 1.001 0 0 0 0 1.38l10.62 11.146a.994.994 0 0 0 .724.31.993.993 0 0 0 .724-.31z"/></symbol><symbol id="icon-close-line" viewBox="0 0 32 32"><path d="m17.253 16 7.369-7.369a.886.886 0 0 0-.047-1.207.893.893 0 0 0-1.207-.047l-7.369 7.369L8.63 7.368A.892.892 0 0 0 7.368 8.63l7.378 7.369-7.378 7.369a.891.891 0 0 0-.249.999.881.881 0 0 0 .503.503.897.897 0 0 0 .712-.027.891.891 0 0 0 .288-.222L16 17.252l7.369 7.369a.886.886 0 0 0 1.207-.047.888.888 0 0 0 .047-1.207l-7.369-7.369z"/></symbol><symbol id="icon-menu" viewBox="0 0 60 32"><path d="M2 0h56a2 2 0 1 1 0 4H2a2 2 0 1 1 0-4zM2 14h56a2 2 0 1 1 0 4H2a2 2 0 1 1 0-4zM2 28h56a2 2 0 1 1 0 4H2a2 2 0 1 1 0-4z"/></symbol><symbol id="icon-arrow-left" viewBox="0 0 32 32"><path fill="#d7d7d7" style="fill:var(--color3,#d7d7d7)" d="m14.545 16.667 6.788 6.741-1.939 1.926-8.727-8.667L19.394 8l1.939 1.926-6.788 6.741z"/></symbol><symbol id="icon-search" viewBox="0 0 31 32"><path fill="#fd5103" style="fill:var(--color1,#fd5103)" d="M12.8 23.68c2.272 0 4.478-.761 6.268-2.161l5.627 5.627 1.81-1.81-5.627-5.627a10.184 10.184 0 0 0 2.162-6.269c0-5.646-4.594-10.24-10.24-10.24S2.56 7.794 2.56 13.44 7.154 23.68 12.8 23.68zm0-17.92c4.236 0 7.68 3.444 7.68 7.68s-3.444 7.68-7.68 7.68-7.68-3.444-7.68-7.68 3.444-7.68 7.68-7.68z"/></symbol><symbol id="icon-down-arrow" viewBox="0 0 32 32"><path d="m7.79 12.791 7.543 7.543 7.543-7.543-.943-.943-6.6 6.6-6.6-6.6-.943.943z"/></symbol><symbol id="icon-falsetoggle-true" viewBox="0 0 64 32"><path fill="#fd5103" style="fill:var(--color1,#fd5103)" d="M16 .8h32C56.395.8 63.2 7.605 63.2 16S56.395 31.2 48 31.2H16C7.605 31.2.8 24.395.8 16S7.605.8 16 .8z"/><path fill="#fff" style="fill:var(--color4,#fff)" d="M60.8 16c0 7.069-5.731 12.8-12.8 12.8S35.2 23.069 35.2 16c0-7.069 5.731-12.8 12.8-12.8S60.8 8.931 60.8 16z"/><path fill="none" stroke="#fff" style="stroke:var(--color4,#fff)" stroke-width="1.6" d="M16 .8h32C56.395.8 63.2 7.605 63.2 16S56.395 31.2 48 31.2H16C7.605 31.2.8 24.395.8 16S7.605.8 16 .8z"/></symbol><symbol id="icon-truetoggle-false" viewBox="0 0 64 32"><path fill="#fff" style="fill:var(--color4,#fff)" d="M16 .484h32C56.569.484 63.516 7.431 63.516 16S56.569 31.516 48 31.516H16C7.431 31.516.484 24.569.484 16S7.431.484 16 .484z"/><path fill="#fd5103" style="fill:var(--color1,#fd5103)" d="M27.2 16c0 7.069-5.731 12.8-12.8 12.8S1.6 23.069 1.6 16c0-7.069 5.731-12.8 12.8-12.8S27.2 8.931 27.2 16z"/><path fill="none" stroke="#fd5103" style="stroke:var(--color1,#fd5103)" stroke-width=".968" d="M16 .484h32C56.569.484 63.516 7.431 63.516 16S56.569 31.516 48 31.516H16C7.431 31.516.484 24.569.484 16S7.431.484 16 .484z"/></symbol><symbol id="icon-arrow-right" viewBox="0 0 32 32"><path d="m17.562 16-6.6-6.6 1.885-1.885L21.332 16l-8.485 8.485-1.885-1.885 6.6-6.6z"/></symbol><symbol id="icon-orange-heart" viewBox="0 0 35 32"><path fill="#fd5103" style="fill:var(--color1,#fd5103)" d="m17.684 32-2.564-2.302C6.013 21.554 0 16.183 0 9.591 0 4.22 4.28 0 9.726 0c3.077 0 6.03 1.413 7.958 3.645C19.612 1.413 22.565 0 25.642 0c5.447 0 9.726 4.22 9.726 9.591 0 6.592-6.013 11.963-15.12 20.124l-2.564 2.284z"/></symbol><symbol id="icon-light-heart" viewBox="0 0 35 32"><path fill="#fd5103" style="fill:var(--color1,#fd5103)" d="m17.684 32-2.564-2.302C6.013 21.554 0 16.183 0 9.591 0 4.22 4.28 0 9.726 0c3.077 0 6.03 1.413 7.958 3.645C19.612 1.413 22.565 0 25.642 0c5.447 0 9.726 4.22 9.726 9.591 0 6.592-6.013 11.963-15.12 20.124l-2.564 2.284z"/><path fill="#fcfcfc" style="fill:var(--color5,#fcfcfc)" d="m17.684 28.632-2.076-1.817c-7.373-6.429-12.24-10.67-12.24-15.874 0-4.24 3.464-7.572 7.874-7.572 2.491 0 4.882 1.115 6.442 2.877 1.56-1.762 3.951-2.877 6.442-2.877 4.409 0 7.874 3.332 7.874 7.572 0 5.204-4.867 9.444-12.24 15.888l-2.076 1.803z"/></symbol></defs></svg>