<svg viewBox="0 0 24 24" xmlns="http://www.w3.org/2000/svg">
<path d="M12.5429 15.9299L20.5079 7.57045C20.6409 7.43096 20.7151 7.24565 20.7151 7.05295C20.7151 6.86024 20.6409 6.67493 20.5079 6.53545L20.4989 6.52645C20.4345 6.45859 20.3569 6.40456 20.2709 6.36764C20.1849 6.33072 20.0923 6.31168 19.9987 6.31168C19.9051 6.31168 19.8125 6.33072 19.7265 6.36764C19.6405 6.40456 19.5629 6.45859 19.4984 6.52645L11.9984 14.3984L4.50145 6.52645C4.43699 6.45859 4.3594 6.40456 4.2734 6.36764C4.1874 6.33072 4.09479 6.31168 4.0012 6.31168C3.90761 6.31168 3.815 6.33072 3.729 6.36764C3.643 6.40456 3.56541 6.45859 3.50095 6.52645L3.49195 6.53545C3.35898 6.67493 3.2848 6.86024 3.2848 7.05295C3.2848 7.24565 3.35898 7.43096 3.49195 7.57045L11.4569 15.9299C11.527 16.0035 11.6112 16.062 11.7046 16.102C11.7979 16.142 11.8984 16.1626 11.9999 16.1626C12.1015 16.1626 12.202 16.142 12.2953 16.102C12.3887 16.062 12.4729 16.0035 12.5429 15.9299Z" fill="black"/>
</svg>