<svg aria-hidden="true" style="position: absolute; width: 0; height: 0; overflow: hidden;" version="1.1" xmlns="http://www.w3.org/2000/svg" xmlns:xlink="http://www.w3.org/1999/xlink">
<defs>
<symbol id="icon-dark-heart" viewBox="0 0 35 32">
<path fill="#fd5103" style="fill: var(--color1, #fd5103)" d="M17.684 32l-2.564-2.302c-9.107-8.144-15.12-13.515-15.12-20.107 0-5.371 4.28-9.591 9.726-9.591 3.077 0 6.030 1.413 7.958 3.645 1.928-2.232 4.881-3.645 7.958-3.645 5.447 0 9.726 4.22 9.726 9.591 0 6.592-6.013 11.963-15.12 20.124l-2.564 2.284z"></path>
<path fill="#202025" style="fill: var(--color2, #202025)" d="M17.684 28.632l-2.076-1.817c-7.373-6.429-12.24-10.67-12.24-15.874 0-4.24 3.464-7.572 7.874-7.572 2.491 0 4.882 1.115 6.442 2.877 1.56-1.762 3.951-2.877 6.442-2.877 4.409 0 7.874 3.332 7.874 7.572 0 5.204-4.867 9.444-12.24 15.888l-2.076 1.803z"></path>
</symbol>
<symbol id="icon-arrow-mob" viewBox="0 0 32 32">
<path d="M16.724 21.24l10.62-11.146c0.177-0.186 0.276-0.433 0.276-0.69s-0.099-0.504-0.276-0.69l-0.012-0.012c-0.086-0.090-0.189-0.163-0.304-0.212s-0.238-0.075-0.363-0.075c-0.125 0-0.248 0.025-0.363 0.075s-0.218 0.121-0.304 0.212l-10 10.496-9.996-10.496c-0.086-0.090-0.189-0.163-0.304-0.212s-0.238-0.075-0.363-0.075c-0.125 0-0.248 0.025-0.363 0.075s-0.218 0.121-0.304 0.212l-0.012 0.012c-0.177 0.186-0.276 0.433-0.276 0.69s0.099 0.504 0.276 0.69l10.62 11.146c0.093 0.098 0.206 0.176 0.33 0.229s0.258 0.081 0.394 0.081c0.135 0 0.269-0.027 0.394-0.081s0.237-0.131 0.33-0.229z"></path>
</symbol>
<symbol id="icon-close-line" viewBox="0 0 32 32">
<path d="M17.253 16l7.369-7.369c0.146-0.17 0.222-0.389 0.213-0.613s-0.101-0.436-0.26-0.594-0.37-0.251-0.594-0.26c-0.224-0.009-0.442 0.067-0.613 0.213l-7.369 7.369-7.369-7.378c-0.167-0.167-0.394-0.261-0.631-0.261s-0.464 0.094-0.631 0.261c-0.167 0.167-0.261 0.394-0.261 0.631s0.094 0.464 0.261 0.631l7.378 7.369-7.378 7.369c-0.093 0.080-0.169 0.178-0.222 0.288s-0.083 0.23-0.088 0.353 0.016 0.244 0.061 0.358c0.045 0.114 0.112 0.218 0.199 0.304s0.19 0.154 0.304 0.199 0.236 0.065 0.359 0.061c0.122-0.005 0.243-0.035 0.353-0.088s0.208-0.129 0.288-0.222l7.378-7.369 7.369 7.369c0.17 0.146 0.389 0.222 0.613 0.213s0.436-0.101 0.594-0.26 0.251-0.371 0.26-0.594c0.009-0.224-0.067-0.442-0.213-0.613l-7.369-7.369z"></path>
</symbol>
<symbol id="icon-menu" viewBox="0 0 60 32">
<path d="M2 0h56c1.105 0 2 0.895 2 2s-0.895 2-2 2h-56c-1.105 0-2-0.895-2-2s0.895-2 2-2z"></path>
<path d="M2 14h56c1.105 0 2 0.895 2 2s-0.895 2-2 2h-56c-1.105 0-2-0.895-2-2s0.895-2 2-2z"></path>
<path d="M2 28h56c1.105 0 2 0.895 2 2s-0.895 2-2 2h-56c-1.105 0-2-0.895-2-2s0.895-2 2-2z"></path>
</symbol>
<symbol id="icon-arrow-left" viewBox="0 0 32 32">
<path fill="#d7d7d7" style="fill: var(--color3, #d7d7d7)" d="M14.545 16.667l6.788 6.741-1.939 1.926-8.727-8.667 8.727-8.667 1.939 1.926-6.788 6.741z"></path>
</symbol>
<symbol id="icon-search" viewBox="0 0 31 32">
<path fill="#fd5103" style="fill: var(--color1, #fd5103)" d="M12.8 23.68c2.272-0 4.478-0.761 6.268-2.161l5.627 5.627 1.81-1.81-5.627-5.627c1.4-1.79 2.161-3.997 2.162-6.269 0-5.646-4.594-10.24-10.24-10.24s-10.24 4.594-10.24 10.24c0 5.646 4.594 10.24 10.24 10.24zM12.8 5.76c4.236 0 7.68 3.444 7.68 7.68s-3.444 7.68-7.68 7.68c-4.236 0-7.68-3.444-7.68-7.68s3.444-7.68 7.68-7.68z"></path>
</symbol>
<symbol id="icon-down-arrow" viewBox="0 0 32 32">
<path fill="#fd5103" style="fill: var(--color1, #fd5103)" d="M7.79 12.791l7.543 7.543 7.543-7.543-0.943-0.943-6.6 6.6-6.6-6.6-0.943 0.943z"></path>
</symbol>
<symbol id="icon-falsetoggle-true" viewBox="0 0 64 32">
<path fill="#fd5103" style="fill: var(--color1, #fd5103)" d="M16 0.8h32c8.395 0 15.2 6.805 15.2 15.2s-6.805 15.2-15.2 15.2h-32c-8.395 0-15.2-6.805-15.2-15.2s6.805-15.2 15.2-15.2z"></path>
<path fill="#fff" style="fill: var(--color4, #fff)" d="M60.8 16c0 7.069-5.731 12.8-12.8 12.8s-12.8-5.731-12.8-12.8c0-7.069 5.731-12.8 12.8-12.8s12.8 5.731 12.8 12.8z"></path>
<path fill="none" stroke="#fff" style="stroke: var(--color4, #fff)" stroke-linejoin="miter" stroke-linecap="butt" stroke-miterlimit="4" stroke-width="1.6" d="M16 0.8h32c8.395 0 15.2 6.805 15.2 15.2s-6.805 15.2-15.2 15.2h-32c-8.395 0-15.2-6.805-15.2-15.2s6.805-15.2 15.2-15.2z"></path>
</symbol>
<symbol id="icon-truetoggle-false" viewBox="0 0 64 32">
<path fill="#fff" style="fill: var(--color4, #fff)" d="M16 0.484h32c8.569 0 15.516 6.947 15.516 15.516s-6.947 15.516-15.516 15.516h-32c-8.569 0-15.516-6.947-15.516-15.516s6.947-15.516 15.516-15.516z"></path>
<path fill="#fd5103" style="fill: var(--color1, #fd5103)" d="M27.2 16c0 7.069-5.731 12.8-12.8 12.8s-12.8-5.731-12.8-12.8c0-7.069 5.731-12.8 12.8-12.8s12.8 5.731 12.8 12.8z"></path>
<path fill="none" stroke="#fd5103" style="stroke: var(--color1, #fd5103)" stroke-linejoin="miter" stroke-linecap="butt" stroke-miterlimit="4" stroke-width="0.9675" d="M16 0.484h32c8.569 0 15.516 6.947 15.516 15.516s-6.947 15.516-15.516 15.516h-32c-8.569 0-15.516-6.947-15.516-15.516s6.947-15.516 15.516-15.516z"></path>
</symbol>
<symbol id="icon-arrow-right" viewBox="0 0 32 32">
<path d="M17.562 16l-6.6-6.6 1.885-1.885 8.485 8.485-8.485 8.485-1.885-1.885 6.6-6.6z"></path>
</symbol>
<symbol id="icon-orange-heart" viewBox="0 0 35 32">
<path fill="#fd5103" style="fill: var(--color1, #fd5103)" d="M17.684 32l-2.564-2.302c-9.107-8.144-15.12-13.515-15.12-20.107 0-5.371 4.28-9.591 9.726-9.591 3.077 0 6.030 1.413 7.958 3.645 1.928-2.232 4.881-3.645 7.958-3.645 5.447 0 9.726 4.22 9.726 9.591 0 6.592-6.013 11.963-15.12 20.124l-2.564 2.284z"></path>
</symbol>
<symbol id="icon-light-heart" viewBox="0 0 35 32">
<path fill="#fd5103" style="fill: var(--color1, #fd5103)" d="M17.684 32l-2.564-2.302c-9.107-8.144-15.12-13.515-15.12-20.107 0-5.371 4.28-9.591 9.726-9.591 3.077 0 6.030 1.413 7.958 3.645 1.928-2.232 4.881-3.645 7.958-3.645 5.447 0 9.726 4.22 9.726 9.591 0 6.592-6.013 11.963-15.12 20.124l-2.564 2.284z"></path>
<path fill="#fcfcfc" style="fill: var(--color5, #fcfcfc)" d="M17.684 28.632l-2.076-1.817c-7.373-6.429-12.24-10.67-12.24-15.874 0-4.24 3.464-7.572 7.874-7.572 2.491 0 4.882 1.115 6.442 2.877 1.56-1.762 3.951-2.877 6.442-2.877 4.409 0 7.874 3.332 7.874 7.572 0 5.204-4.867 9.444-12.24 15.888l-2.076 1.803z"></path>
</symbol>
</defs>
</svg>
