<?xml version="1.0" standalone="no"?>
<!DOCTYPE svg PUBLIC "-//W3C//DTD SVG 20010904//EN"
 "http://www.w3.org/TR/2001/REC-SVG-20010904/DTD/svg10.dtd">
<svg version="1.0" xmlns="http://www.w3.org/2000/svg"
 width="300.000000pt" height="300.000000pt" viewBox="0 0 300.000000 300.000000"
 preserveAspectRatio="xMidYMid meet">
<metadata>
Created by potrace 1.14, written by Peter Selinger 2001-2017
</metadata>
<g transform="translate(0.000000,300.000000) scale(0.100000,-0.100000)"
fill="#000000" stroke="none">
<path d="M2095 2860 c-5 -16 -15 -20 -53 -20 -81 0 -163 -64 -157 -122 1 -13
3 -31 4 -40 0 -9 17 -32 36 -51 l35 -34 -42 -84 -43 -84 -638 3 c-502 2 -642
0 -654 -10 -24 -20 -34 -55 -22 -85 10 -28 321 -340 639 -643 101 -96 197
-188 214 -205 l31 -29 0 -367 0 -367 -171 0 c-189 0 -214 -6 -214 -54 0 -54 3
-54 453 -54 443 1 447 1 447 51 0 12 -8 29 -19 39 -16 14 -43 17 -190 17 -124
0 -171 4 -172 12 -1 7 -2 170 -3 362 l-1 350 25 25 c14 14 131 126 260 250
378 362 598 585 609 613 11 29 1 69 -21 83 -7 5 -130 9 -273 9 -143 0 -259 4
-258 8 1 4 18 41 39 81 l38 73 41 -2 c119 -6 197 107 135 195 -11 16 -29 32
-40 35 -16 5 -18 10 -10 25 14 26 12 40 -4 40 -8 0 -18 -9 -21 -20z m-294
-574 c1 -4 -13 -34 -31 -67 l-31 -59 -417 0 -418 0 -68 69 -69 69 517 -2 c284
-1 517 -5 517 -10z m446 5 c6 -1 -20 -31 -57 -67 l-68 -65 -167 0 c-92 0 -170
2 -172 4 -7 8 57 122 72 127 11 4 342 5 392 1z"/>
</g>
</svg>
